#!OML:ASF F:\VICON\USERDATA\INSTALL\rory3\rory3.ASF
:FULLY-SPECIFIED
:DEGREES
165
root 3.26863 17.522 -25.3131 -1.69259 -14.3195 -0.809552
lowerback 19.5658 -0.845758 -1.27904
upperback 1.01352 -1.0098 3.98576
thorax -9.79226 -0.32734 5.40126
lowerneck -7.89289 -9.21814 -7.23419
upperneck 35.8808 -11.2191 -3.62884
head 13.7082 -6.40126 -1.77094
rclavicle 4.37326e-015 -3.18055e-015
rhumerus -14.054 -22.0312 -64.5409
rradius 35.4329
rwrist 27.846
rhand -9.84754 5.15279
rfingers 7.12502
rthumb 16.1305 -24.196
lclavicle 4.37326e-015 -3.18055e-015
lhumerus -42.0561 -4.44159 82.4783
lradius 49.3595
lwrist 1.35911
lhand -9.12351 48.4943
lfingers 7.12502
lthumb 16.8275 77.7852
rfemur -18.0843 6.56442 20.0483
rtibia 39.4082
rfoot -16.7654 -5.37241
rtoes 12.4861
lfemur -3.5174 -0.387244 -22.935
ltibia 44.0126
lfoot -12.588 3.63363
ltoes -24.1898
166
root 3.2291 17.5361 -25.2274 -1.60169 -14.1914 -0.984714
lowerback 19.5333 -0.929574 -1.30075
upperback 0.76402 -1.08315 4.33462
thorax -10.0389 -0.340993 5.83394
lowerneck -7.06137 -9.14402 -8.08291
upperneck 36.0113 -11.0561 -3.53362
head 13.6706 -6.43871 -1.53699
rclavicle 1.74931e-014 -2.8625e-014
rhumerus -13.9717 -23.4653 -64.308
rradius 32.6446
rwrist 26.531
rhand -7.53346 5.03899
rfingers 7.12502
rthumb 18.3577 -24.1148
lclavicle 1.74931e-014 -2.8625e-014
lhumerus -42.6173 -3.57819 82.678
lradius 49.531
lwrist 0.969568
lhand -7.56245 50.0721
lfingers 7.12502
lthumb 18.3298 79.2284
rfemur -17.5528 6.3242 20.322
rtibia 39.0366
rfoot -16.7957 -5.41541
rtoes 11.2505
lfemur -4.94285 0.130551 -22.3356
ltibia 46.3588
lfoot -10.6025 2.4505
ltoes -22.8807
167
root 3.19073 17.5487 -25.1469 -1.49697 -14.0731 -1.30877
lowerback 19.7705 -0.722231 -0.783741
upperback 0.83679 -0.687473 4.37843
thorax -10.1386 -0.175126 5.4812
lowerneck -7.32304 -8.89548 -7.47096
upperneck 35.6608 -10.6857 -3.73057
head 13.4916 -6.21448 -1.64719
rclavicle -2.10712e-014 -3.97569e-015
rhumerus -14.0098 -26.6535 -64.0924
rradius 30.2168
rwrist 24.8162
rhand -5.47233 3.94526
rfingers 7.12502
rthumb 20.3395 -25.0096
lclavicle -2.10712e-014 -3.97569e-015
lhumerus -42.0983 -4.11583 82.8382
lradius 49.7133
lwrist 1.05994
lhand -10.2934 46.8612
lfingers 7.12502
lthumb 15.7011 76.2442
rfemur -16.9881 6.26706 20.7713
rtibia 38.6322
rfoot -16.842 -5.62415
rtoes 10.9761
lfemur -6.46503 0.581671 -21.5995
ltibia 48.737
lfoot -8.31483 1.31119
ltoes -20.3864
168
root 3.15225 17.5517 -25.0632 -1.459 -13.8509 -1.57263
lowerback 19.9408 -0.678381 -0.476267
upperback 0.779711 -0.540571 4.51113
thorax -10.3145 -0.111535 5.42027
lowerneck -7.49631 -9.46993 -7.89238
upperneck 36.4345 -11.5169 -3.58671
head 13.9462 -6.60734 -1.7048
rclavicle -1.19271e-015 -2.38542e-014
rhumerus -14.3735 -29.212 -63.7353
rradius 28.0772
rwrist 22.5947
rhand -3.76586 0.303894
rfingers 7.12502
rthumb 21.9788 -28.4674
lclavicle -1.19271e-015 -2.38542e-014
lhumerus -42.0996 -4.11361 82.9539
lradius 50.0041
lwrist 1.2158
lhand -10.6889 46.1435
lfingers 7.12502
lthumb 15.3202 75.556
rfemur -16.3908 6.01921 21.1495
rtibia 38.2745
rfoot -17.0215 -5.8762
rtoes 10.1179
lfemur -7.86669 0.993709 -20.9579
ltibia 51.0656
lfoot -5.61884 0.310255
ltoes -18.5668
169
root 3.11764 17.5519 -24.971 -1.5305 -13.597 -1.87392
lowerback 19.9424 -1.02576 -0.530618
upperback 0.510341 -0.949116 5.01962
thorax -10.5706 -0.276666 6.15429
lowerneck -5.74806 -8.87455 -8.98042
upperneck 35.8547 -10.6466 -3.42388
head 13.3993 -6.37158 -1.2091
rclavicle -1.07344e-014 -4.45278e-014
rhumerus -14.7978 -30.3056 -63.1499
rradius 26.0392
rwrist 20.1549
rhand -2.45908 0.00582525
rfingers 7.12502
rthumb 23.233 -28.6127
lclavicle -1.07344e-014 -4.45278e-014
lhumerus -43.2238 -2.61579 83.0705
lradius 50.5149
lwrist 1.11997
lhand -8.59293 48.1414
lfingers 7.12502
lthumb 17.3383 77.3881
rfemur -15.6611 5.48763 21.5379
rtibia 37.9747
rfoot -17.3399 -5.89306
rtoes 8.55558
lfemur -9.14302 1.36168 -20.3082
ltibia 53.352
lfoot -2.85061 -0.632162
ltoes -17.0929
170
root 3.08196 17.5523 -24.8761 -1.64032 -13.4911 -2.05045
lowerback 19.8641 -0.647754 0.197886
upperback 1.05262 -0.335377 4.76528
thorax -9.9901 -0.0505716 5.24232
lowerneck -7.0083 -9.42035 -8.05708
upperneck 36.0223 -11.4831 -3.41237
head 13.6816 -6.58989 -1.54978
rclavicle -4.73108e-014 6.67916e-014
rhumerus -15.1069 -35.457 -62.6818
rradius 24.296
rwrist 18.6803
rhand -2.15602 -0.85615
rfingers 7.12502
rthumb 23.5237 -29.4377
lclavicle -4.73108e-014 6.67916e-014
lhumerus -41.8437 -3.93484 83.0475
lradius 50.7631
lwrist 1.43231
lhand -8.08129 48.7123
lfingers 7.12502
lthumb 17.8306 77.9149
rfemur -14.957 5.10633 21.7885
rtibia 37.7173
rfoot -17.6033 -5.77104
rtoes 7.69889
lfemur -10.4507 1.81955 -19.8341
ltibia 55.5699
lfoot -0.493467 -1.4863
ltoes -15.757
171
root 3.04071 17.5409 -24.8049 -1.69339 -13.275 -2.44779
lowerback 20.1193 -0.575812 0.690158
upperback 1.19151 -0.121617 4.82326
thorax -9.99716 0.0278777 4.96603
lowerneck -7.17612 -9.58733 -7.85069
upperneck 36.0354 -11.762 -3.36907
head 13.7139 -6.6722 -1.61534
rclavicle 5.36719e-015 -2.06736e-014
rhumerus -15.9295 -38.7387 -62.0186
rradius 22.8775
rwrist 16.4568
rhand -2.44183 -1.64442
rfingers 7.12502
rthumb 23.2496 -30.2609
lclavicle 5.36719e-015 -2.06736e-014
lhumerus -41.6418 -4.06404 82.9186
lradius 51.3452
lwrist 2.04748
lhand -7.57771 49.4877
lfingers 7.12502
lthumb 18.3151 78.6454
rfemur -14.3097 4.984 22.3521
rtibia 37.3748
rfoot -17.7712 -5.94014
rtoes 7.93449
lfemur -11.8617 2.22641 -19.058
ltibia 57.7424
lfoot 1.35196 -2.59183
ltoes -15.9279
